<svg id="Layer_1" data-name="Layer 1" xmlns="http://www.w3.org/2000/svg" viewBox="0 0 792 500"><defs><style>.cls-1{fill:#f0f0f2;}</style></defs><title>AR Anti-Flash White</title><polygon class="cls-1" points="348.6 138.56 348.6 139.55 348.01 139.55 348.6 138.56"/><path class="cls-1" d="M637.28,139.55h-6a23.72,23.72,0,0,1,6,0Z"/><path class="cls-1" d="M637.28,194.78a23.7,23.7,0,0,1-6,0Z"/><rect class="cls-1" x="348.6" y="29.11" width="105.08" height="441.78"/><polygon class="cls-1" points="339.59 29.11 339.59 138.56 339 139.55 305.99 194.78 240 305.22 207 360.45 140.99 470.89 17.35 470.89 83.36 360.45 116.34 305.22 182.35 194.78 215.38 139.55 281.37 29.11 339.59 29.11"/><path class="cls-1" d="M708.64,360.45l66,110.44H651L585,360.45l-33-55.23L486,194.78H640.31a23.7,23.7,0,0,0,6,0c13.21-1.55,23.46-13.31,23.46-27.62s-10.25-26.05-23.46-27.61a23.72,23.72,0,0,0-6,0H462.69V29.11H643.3c63.54,0,116.54,47.43,128.72,110.44a146.28,146.28,0,0,1,0,55.23c-10.2,52.73-49,94.54-98.56,106.79l2.18,3.65Z"/></svg>